<?xml version='1.0' encoding='utf-8'?>
<svg xmlns="http://www.w3.org/2000/svg" width="91.44mm" height="91.44mm" version="1.1" style="shape-rendering:geometricPrecision; text-rendering:geometricPrecision; image-rendering:optimizeQuality; fill-rule:evenodd; clip-rule:evenodd" viewBox="0 0 148.46 148.46"> <defs> <style type="text/css">  .fil1 {fill:white;fill-rule:nonzero} .fil0 {fill:url(#id0)}  </style> <linearGradient id="id0" gradientUnits="userSpaceOnUse" x1="139.55" y1="8.9" x2="8.9" y2="139.55"> <stop offset="0" style="stop-opacity:1; stop-color:#EC268F"/> <stop offset="1" style="stop-opacity:1; stop-color:#F58634"/> </linearGradient> </defs> <g id="Camada_x0020_1"> <metadata id="CorelCorpID_0Corel-Layer"/> <polygon class="fil0" points="-0,148.46 148.46,148.46 148.46,0 -0,0 "/> <path class="fil1" d="M54.99 40.38l38.48 0c4.02,0 7.67,1.64 10.32,4.29 2.65,2.65 4.29,6.29 4.29,10.32l0 38.48c0,4.02 -1.64,7.67 -4.29,10.32 -2.65,2.65 -6.3,4.29 -10.32,4.29l-38.48 0c-4.02,0 -7.67,-1.64 -10.31,-4.29 -2.65,-2.65 -4.29,-6.3 -4.29,-10.32l0 -38.48c0,-4.02 1.64,-7.67 4.29,-10.32 2.65,-2.65 6.3,-4.29 10.31,-4.29zm39.83 9.38c1.07,0 2.04,0.43 2.74,1.13 0.7,0.7 1.13,1.67 1.13,2.74 0,1.07 -0.43,2.03 -1.13,2.73 -0.03,0.03 -0.06,0.06 -0.09,0.09 -0.69,0.65 -1.62,1.05 -2.64,1.05 -1.07,0 -2.03,-0.43 -2.73,-1.13l-0.01 -0.01c-0.7,-0.7 -1.13,-1.66 -1.13,-2.73 0,-1.07 0.43,-2.03 1.13,-2.73l0 -0.01 -0 0c0.7,-0.7 1.67,-1.13 2.74,-1.13zm0.79 3.08c-0.2,-0.2 -0.48,-0.33 -0.79,-0.33 -0.31,0 -0.59,0.13 -0.79,0.33l-0 0c-0.2,0.2 -0.33,0.48 -0.33,0.8 0,0.31 0.12,0.59 0.33,0.79 0.2,0.21 0.48,0.33 0.8,0.33 0.29,0 0.55,-0.1 0.75,-0.28l0.05 -0.05c0.2,-0.2 0.33,-0.48 0.33,-0.79 0,-0.32 -0.13,-0.59 -0.33,-0.8zm-21.38 2.55c5.2,0 9.91,2.11 13.32,5.52 3.41,3.41 5.52,8.12 5.52,13.32 0,5.2 -2.11,9.91 -5.52,13.32 -3.41,3.41 -8.12,5.52 -13.32,5.52 -5.2,0 -9.91,-2.11 -13.32,-5.52 -3.41,-3.41 -5.52,-8.12 -5.52,-13.32 0,-5.2 2.11,-9.91 5.52,-13.32 3.41,-3.41 8.12,-5.52 13.32,-5.52zm11.38 7.46c-2.91,-2.91 -6.93,-4.71 -11.38,-4.71 -4.44,0 -8.47,1.8 -11.38,4.71 -2.91,2.91 -4.71,6.93 -4.71,11.38 0,4.44 1.8,8.47 4.71,11.38 2.91,2.91 6.93,4.71 11.38,4.71 4.44,0 8.47,-1.8 11.38,-4.71 2.91,-2.91 4.71,-6.93 4.71,-11.38 0,-4.44 -1.8,-8.47 -4.71,-11.38zm7.86 -19.72l-38.48 0c-3.26,0 -6.22,1.33 -8.37,3.48 -2.15,2.15 -3.48,5.11 -3.48,8.37l0 38.48c0,3.26 1.33,6.22 3.48,8.37 2.15,2.15 5.11,3.48 8.37,3.48l38.48 0c3.26,0 6.22,-1.33 8.37,-3.48 2.15,-2.15 3.48,-5.11 3.48,-8.37l0 -38.48c0,-3.26 -1.34,-6.23 -3.48,-8.37 -2.15,-2.15 -5.11,-3.48 -8.37,-3.48z"/> </g> </svg>